<?xml version="1.0" standalone="no"?>
<!DOCTYPE svg PUBLIC "-//W3C//DTD SVG 20010904//EN"
 "http://www.w3.org/TR/2001/REC-SVG-20010904/DTD/svg10.dtd">
<svg version="1.0" xmlns="http://www.w3.org/2000/svg"
 width="215.000000pt" height="234.000000pt" viewBox="0 0 215.000000 234.000000"
 preserveAspectRatio="xMidYMid meet">

<g transform="translate(0.000000,234.000000) scale(0.100000,-0.100000)"
fill="#fff" stroke="none">
<path d="M625 2331 c-36 -15 -58 -49 -63 -99 l-4 -49 -246 -66 c-135 -37 -256
-74 -269 -83 -13 -8 -29 -27 -34 -42 -11 -28 -14 -14 128 -559 l34 -132 -44
-43 -45 -43 -7 -120 c-4 -66 -5 -313 -1 -550 8 -482 6 -469 82 -512 l39 -23
892 3 c883 2 892 2 919 23 15 11 37 33 48 48 21 27 21 40 24 562 2 529 2 536
-19 573 -11 21 -34 46 -50 55 -16 9 -29 23 -29 29 0 7 33 136 74 287 40 151
78 298 85 325 14 59 4 96 -31 119 -19 13 -190 62 -465 135 -39 11 -43 15 -43
44 0 43 -29 99 -60 114 -19 10 -131 13 -460 12 -239 0 -444 -4 -455 -8z m874
-57 l31 -6 0 -484 0 -484 -30 0 -30 0 0 333 c0 184 -3 369 -7 411 -6 72 -8 78
-34 92 -16 8 -36 28 -44 44 l-16 30 -292 -2 -292 -3 -14 -29 c-7 -16 -26 -33
-41 -39 -21 -8 -29 -19 -34 -46 -3 -20 -6 -206 -6 -413 l0 -378 -28 0 -29 0
-6 137 c-12 244 -8 818 5 831 9 9 117 12 424 12 226 0 426 -3 443 -6z m-135
-160 l36 -36 0 -390 0 -389 -37 3 -38 3 3 81 c4 93 -8 130 -59 189 -94 107
-268 114 -367 15 -51 -50 -75 -106 -76 -175 -1 -33 2 -72 7 -87 7 -27 6 -28
-33 -28 l-40 0 0 389 0 389 33 35 32 34 252 2 251 1 36 -36z m-804 -27 l0 -34
-157 -42 c-159 -42 -183 -54 -183 -95 0 -12 -13 -32 -29 -46 l-29 -25 69 -259
c38 -142 69 -265 69 -273 0 -8 -11 -13 -29 -13 -24 0 -31 6 -40 33 -25 76
-152 566 -158 604 -5 40 -4 43 23 54 25 9 437 125 457 128 4 0 7 -14 7 -32z
m1270 -32 c245 -66 250 -68 250 -98 0 -20 -134 -540 -161 -624 -9 -27 -16 -33
-40 -33 -19 0 -29 5 -29 15 0 9 29 124 65 257 36 133 65 252 65 264 0 12 -11
29 -25 38 -15 10 -25 26 -25 39 0 42 -23 55 -160 92 -74 20 -143 39 -152 41
-21 6 -26 64 -5 64 6 0 104 -25 217 -55z m-1270 -138 c0 -51 -4 -68 -20 -82
-11 -10 -20 -30 -20 -45 0 -15 9 -35 20 -45 18 -16 20 -31 20 -147 l0 -129
-35 -46 c-19 -25 -40 -63 -47 -85 -11 -37 -12 -38 -58 -38 l-47 0 -33 123
c-18 67 -50 186 -70 264 -22 81 -34 145 -29 149 5 3 18 22 28 42 18 36 23 38
132 69 164 45 159 46 159 -30z m1179 31 c120 -32 123 -34 142 -70 10 -20 23
-39 28 -42 5 -4 -7 -68 -29 -149 -20 -78 -52 -197 -70 -264 l-33 -123 -47 0
c-46 0 -49 2 -55 30 -4 17 -22 52 -41 80 l-34 50 0 139 c0 111 3 141 15 151 8
7 15 25 15 40 0 15 -7 33 -15 40 -11 9 -15 32 -15 81 0 38 3 69 8 69 4 0 63
-14 131 -32z m-584 -367 c47 -22 89 -64 104 -104 16 -42 14 -129 -5 -155 -15
-21 -21 -22 -178 -22 l-164 0 -13 32 c-41 100 18 228 120 258 44 14 94 10 136
-9z m-599 -278 c-2 -3 -9 -2 -15 1 -7 5 -6 16 2 34 l12 27 3 -29 c2 -15 1 -30
-2 -33z m1064 5 c0 -5 -4 -8 -10 -8 -5 0 -10 10 -10 23 0 18 2 19 10 7 5 -8
10 -18 10 -22z m349 -72 c57 -30 61 -47 61 -256 l0 -190 -341 0 -340 0 -55
-51 -54 -52 0 -126 0 -125 52 -53 52 -53 343 0 343 0 0 -96 c0 -96 0 -96 -34
-130 l-34 -34 -886 0 -887 0 -24 24 c-13 13 -26 39 -30 57 -3 19 -5 260 -3
536 l3 501 24 26 c17 18 36 26 70 29 25 2 421 4 879 5 710 2 837 0 861 -12z
m51 -676 l0 -160 -327 0 -327 0 -33 32 c-33 32 -33 33 -33 127 0 93 1 96 32
128 l32 33 328 0 328 0 0 -160z"/>
<path d="M1042 2004 c-15 -10 -22 -25 -22 -48 0 -40 20 -59 62 -59 54 0 78 63
38 103 -24 24 -48 25 -78 4z"/>
<path d="M1000 1483 c-14 -5 -80 -71 -80 -79 0 -2 16 -19 35 -39 59 -58 122
-45 139 30 4 16 12 36 18 42 16 20 46 15 58 -7 15 -28 3 -59 -26 -70 -31 -12
-31 -30 1 -30 16 0 32 11 47 30 12 17 28 30 35 30 7 0 13 7 13 15 0 8 -5 15
-10 15 -6 0 -20 12 -33 26 -32 38 -51 45 -85 33 -29 -10 -52 -44 -52 -77 0
-40 -51 -57 -69 -24 -15 27 -2 62 26 73 14 5 23 14 21 21 -5 14 -18 18 -38 11z"/>
<path d="M300 1183 c-87 -6 -90 -13 -90 -170 0 -134 0 -134 23 -131 21 3 22 8
27 123 l5 120 592 5 c325 3 595 8 598 12 16 15 -5 35 -42 41 -39 7 -1016 6
-1113 0z"/>
<path d="M1407 630 c-49 -38 -44 -122 9 -150 43 -23 84 -17 116 18 39 45 35
104 -11 139 -25 19 -85 15 -114 -7z m77 -36 c24 -9 21 -61 -4 -69 -39 -12 -66
35 -38 63 14 14 20 14 42 6z"/>
</g>
</svg>
